<?xml version="1.0" encoding="utf-8"?>
<!-- Generator: Adobe Illustrator 19.2.1, SVG Export Plug-In . SVG Version: 6.00 Build 0)  -->
<svg version="1.1" id="Laag_1" xmlns="http://www.w3.org/2000/svg" xmlns:xlink="http://www.w3.org/1999/xlink" x="0px" y="0px"
	 viewBox="0 0 349 358.7" style="enable-background:new 0 0 349 358.7;" xml:space="preserve">
<style type="text/css">
	.st0{fill:#231F20;}
</style>
<path class="st0" d="M336.2,183.4c0,90.3-72.5,161.4-164.4,161.3C84,344.7,12.7,271.2,12.8,181C12.9,92.9,86.1,21.5,176.1,21.6
	C264.4,21.7,336.2,94.3,336.2,183.4z M282.9,263c37.3-46.7,39.5-127-16.4-179c-54.8-50.9-139.8-47.7-190.6,6.6
	c-51.5,55-42.9,133-9.4,172c35.9-52.4,71.7-104.7,108.1-157.8C211,158.2,246.9,210.5,282.9,263z M174.5,151.8
	c-30.4,44.4-60.3,88-90,131.5c52.3,49.5,136.3,43.9,179.9-0.3C234.6,239.5,204.9,196.1,174.5,151.8z"/>
</svg>
