<?xml version="1.0" encoding="utf-8"?>
<!-- Generator: Adobe Illustrator 16.0.4, SVG Export Plug-In . SVG Version: 6.00 Build 0)  -->
<!DOCTYPE svg PUBLIC "-//W3C//DTD SVG 1.1//EN" "http://www.w3.org/Graphics/SVG/1.1/DTD/svg11.dtd">
<svg version="1.1" id="Layer_1" xmlns="http://www.w3.org/2000/svg" xmlns:xlink="http://www.w3.org/1999/xlink" x="0px" y="0px"
	 width="40px" height="40px" viewBox="0 0 40 40" enable-background="new 0 0 40 40" xml:space="preserve">
<path fill="#1D1D1B" d="M20.005,0C8.958,0,0,8.958,0,20.008c0,8.84,5.732,16.338,13.683,18.982c1,0.184,1.365-0.434,1.365-0.965
	c0-0.475-0.017-1.732-0.027-3.401c-5.565,1.209-6.739-2.683-6.739-2.683c-0.91-2.312-2.221-2.926-2.221-2.926
	c-1.816-1.242,0.137-1.218,0.137-1.218c2.008,0.142,3.064,2.062,3.064,2.062c1.785,3.058,4.683,2.175,5.822,1.662
	c0.182-1.293,0.699-2.174,1.271-2.674c-4.443-0.506-9.113-2.223-9.113-9.889c0-2.184,0.78-3.97,2.06-5.368
	c-0.206-0.507-0.893-2.54,0.196-5.294c0,0,1.68-0.539,5.502,2.051c1.596-0.444,3.307-0.667,5.008-0.674
	c1.699,0.007,3.411,0.229,5.01,0.674c3.818-2.59,5.496-2.051,5.496-2.051c1.09,2.754,0.404,4.787,0.198,5.294
	c1.282,1.398,2.056,3.185,2.056,5.368c0,7.686-4.677,9.377-9.134,9.872c0.718,0.618,1.358,1.839,1.358,3.705
	c0,2.675-0.025,4.832-0.025,5.487c0,0.535,0.36,1.158,1.376,0.963c7.943-2.65,13.671-10.146,13.671-18.98
	C40.014,8.958,31.055,0,20.005,0z"/>
</svg>
